{
    "asset" : {
        "generator" : "Khronos glTF Blender I/O v0.9.36",
        "version" : "2.0"
    },
    "scene" : 0,
    "scenes" : [
        {
            "name" : "Scene",
            "nodes" : [
                0
            ]
        }
    ],
    "nodes" : [
        {
            "mesh" : 0,
            "name" : "MONSTERA_SMALL_5K"
        }
    ],
    "materials" : [
        {
            "doubleSided" : true,
            "name" : "MONSTERA_SMALL_5K_Material_u1_v1",
            "pbrMetallicRoughness" : {
                "baseColorTexture" : {
                    "index" : 0,
                    "texCoord" : 0
                },
                "metallicFactor" : 0,
                "roughnessFactor" : 1
            }
        }
    ],
    "meshes" : [
        {
            "name" : "MONSTERA_SMALL_5K",
            "primitives" : [
                {
                    "attributes" : {
                        "POSITION" : 0,
                        "NORMAL" : 1,
                        "TEXCOORD_0" : 2
                    },
                    "indices" : 3,
                    "material" : 0
                }
            ]
        }
    ],
    "textures" : [
        {
            "source" : 0
        }
    ],
    "images" : [
        {
            "bufferView" : 4,
            "mimeType" : "image/jpeg",
            "name" : "MONSTERA_SMALL_5K_u1_v1"
        }
    ],
    "accessors" : [
        {
            "bufferView" : 0,
            "componentType" : 5126,
            "count" : 6497,
            "max" : [
                0.08923739194869995,
                0.1548963338136673,
                0.0657821074128151
            ],
            "min" : [
                -0.07048754394054413,
                -0.0007949603605084121,
                -0.09607604891061783
            ],
            "type" : "VEC3"
        },
        {
            "bufferView" : 1,
            "componentType" : 5126,
            "count" : 6497,
            "type" : "VEC3"
        },
        {
            "bufferView" : 2,
            "componentType" : 5126,
            "count" : 6497,
            "type" : "VEC2"
        },
        {
            "bufferView" : 3,
            "componentType" : 5123,
            "count" : 15000,
            "type" : "SCALAR"
        }
    ],
    "bufferViews" : [
        {
            "buffer" : 0,
            "byteLength" : 77964,
            "byteOffset" : 0
        },
        {
            "buffer" : 0,
            "byteLength" : 77964,
            "byteOffset" : 77964
        },
        {
            "buffer" : 0,
            "byteLength" : 51976,
            "byteOffset" : 155928
        },
        {
            "buffer" : 0,
            "byteLength" : 30000,
            "byteOffset" : 207904
        },
        {
            "buffer" : 0,
            "byteLength" : 1269233,
            "byteOffset" : 237904
        }
    ],
    "buffers" : [
        {
            "byteLength" : 1507140,
            "uri" : "data:application/octet-stream;base64,"
        }
    ]
}
